<?xml version="1.0" encoding="utf-8"?>
<!-- Generator: Adobe Illustrator 16.0.0, SVG Export Plug-In . SVG Version: 6.00 Build 0)  -->
<!DOCTYPE svg PUBLIC "-//W3C//DTD SVG 1.1//EN" "http://www.w3.org/Graphics/SVG/1.1/DTD/svg11.dtd">
<svg version="1.1" id="Layer_1" xmlns="http://www.w3.org/2000/svg" xmlns:xlink="http://www.w3.org/1999/xlink" x="0px" y="0px"
	 width="126px" height="126px" viewBox="0 0 126 126" enable-background="new 0 0 126 126" xml:space="preserve">
<g>
	<path d="M33.533,37.725c-0.602,0.457-0.896,1.234-0.734,1.971c0.164,0.737,0.74,1.313,1.479,1.475
		c0.607,0.133,1.17,0.124,2.9-1.206c0.77-0.59,1.906-1.585,2.955-2.973l0.459-0.609c3.93-5.227,13.131-17.465,26.42-16.801
		c10.959,0.8,18.729,9.076,22.465,23.936c0.127,0.505,0.205,0.815,0.291,1.053c0.57,2.43,1.529,5.458,2.908,6.454
		c0.344,0.248,0.738,0.366,1.131,0.366c0.602,0,1.193-0.279,1.57-0.803c0.605-0.836,0.443-1.993-0.348-2.634
		c-0.383-0.494-1.102-2.563-1.527-4.412c-0.025-0.11-0.061-0.217-0.105-0.32c-0.035-0.126-0.105-0.401-0.166-0.648
		c-0.594-2.355-2.166-8.612-5.982-14.496c-4.93-7.598-11.65-11.755-19.979-12.356c-0.014-0.001-0.027-0.001-0.041-0.002
		C51.877,14.935,41.801,28.335,37.5,34.057l-0.453,0.601c-1.178,1.557-2.568,2.526-3.049,2.807
		C33.836,37.528,33.68,37.615,33.533,37.725z"/>
	<path d="M82.738,48.592c1.459-3.648,1.494-7.417,0.096-10.34c-1.248-2.607-3.574-4.497-6.725-5.462
		c-4.627-1.416-10.236,1.154-15.375,7.041c-0.066,0.072-7.381,7.766-15.061,12.469c-0.057,0.034-5.682,3.408-11.553,5.007
		c-1.031,0.281-1.639,1.344-1.357,2.375c0.279,1.031,1.344,1.64,2.375,1.358c6.387-1.739,12.287-5.278,12.545-5.434
		c8.332-5.102,15.891-13.144,15.955-13.218c3.119-3.574,7.736-7.001,11.336-5.898c2.119,0.649,3.59,1.804,4.369,3.433
		c0.934,1.949,0.861,4.584-0.199,7.231c-1.971,4.926-8.109,10.875-17.285,16.75c-4.602,2.948-16.186,10.181-24.367,13.679
		c-0.984,0.42-1.439,1.557-1.02,2.54c0.314,0.734,1.029,1.174,1.779,1.174c0.254,0,0.512-0.05,0.76-0.156
		c8.449-3.612,20.252-10.979,24.936-13.978C70.914,62.702,79.83,55.857,82.738,48.592z"/>
	<path d="M51.576,34.146c-0.879,0.968-1.666,2.006-2.516,2.998c-1.111,1.3-2.326,2.514-3.596,3.659
		c-1.303,1.178-2.359,2.021-3.898,2.904c-1.631,0.937-3.295,1.884-4.986,2.707c-0.582,0.284-1.08,0.468-1.734,0.665
		c-1.01,0.303-1.637,1.345-1.352,2.38c0.273,0.998,1.369,1.655,2.379,1.352c1.979-0.595,3.773-1.613,5.559-2.628
		c1.508-0.858,3.006-1.63,4.393-2.685c2.703-2.055,5.029-4.455,7.168-7.08c0.865-1.063,1.791-2.076,2.758-3.048
		c0.529-0.531,1.076-1.043,1.633-1.543c0.291-0.26,0.586-0.514,0.883-0.765c0.152-0.127,0.305-0.252,0.459-0.377
		c0.041-0.033,0.342-0.27,0.418-0.332c1.348-1.032,2.783-1.949,4.293-2.725c1.426-0.733,2.857-1.247,4.594-1.608
		c0.576-0.12,0.701-0.133,1.133-0.177c1.049-0.109,1.936-0.798,1.936-1.935c0-0.973-0.885-2.044-1.936-1.935
		C62.168,24.695,56.186,29.068,51.576,34.146z"/>
	<path d="M36.518,71.196c4.203-1.443,25.787-9.502,37.871-26.443c0.621-0.87,0.42-2.078-0.451-2.698
		c-0.869-0.621-2.078-0.419-2.697,0.451c-11.4,15.979-31.973,23.654-35.98,25.03c-0.086,0.029-0.137,0.048-0.156,0.056
		c-1,0.378-1.502,1.495-1.125,2.495c0.293,0.774,1.029,1.25,1.811,1.25c0.219,0,0.443-0.038,0.66-0.117L36.518,71.196z"/>
	<path d="M89.17,82.715c-2.682-0.894-5.965-3.231-9.137-5.491c-4.598-3.274-8.564-6.102-11.799-5.544
		c-2.43,0.42-6.674,3.132-13.375,7.55c-4.832,3.185-10.307,6.794-12.689,7.435c-1.031,0.278-1.643,1.34-1.365,2.372
		c0.232,0.864,1.014,1.433,1.867,1.433c0.166,0,0.336-0.021,0.504-0.067c2.984-0.804,8.244-4.271,13.813-7.941
		c4.498-2.965,10.096-6.655,11.904-6.967c1.643-0.28,5.664,2.581,8.895,4.883c3.406,2.425,6.928,4.933,10.158,6.01
		c1.014,0.339,2.109-0.21,2.447-1.223C90.73,84.148,90.182,83.052,89.17,82.715z"/>
	<path d="M84.324,92.193c-1.559-0.564-4.094-2.13-6.547-3.645c-5.18-3.2-8.471-5.142-10.834-4.734
		c-2.393,0.413-7.416,3.829-15.852,9.986c-1.033,0.753-1.924,1.404-2.541,1.842c-0.873,0.616-1.082,1.824-0.465,2.696
		c0.377,0.534,0.975,0.819,1.582,0.819c0.385,0,0.775-0.115,1.115-0.355c0.643-0.454,1.545-1.113,2.59-1.876
		c3.357-2.451,12.275-8.961,14.209-9.295c1.207-0.082,5.561,2.603,8.162,4.209c2.74,1.693,5.328,3.292,7.266,3.992
		c1.004,0.364,2.113-0.157,2.477-1.162C85.85,93.666,85.33,92.556,84.324,92.193z"/>
	<path d="M77.789,101.813c-1.086-0.71-2.086-1.423-3.053-2.112c-3.174-2.266-5.916-4.224-8.922-3.702
		c-3.387,0.584-8.777,6.006-9.824,7.086c-0.742,0.768-0.723,1.993,0.045,2.736c0.375,0.364,0.861,0.545,1.346,0.545
		c0.506,0,1.01-0.197,1.391-0.589c2.59-2.677,6.271-5.718,7.701-5.965c1.412-0.242,3.547,1.277,6.018,3.039
		c0.951,0.679,2.029,1.449,3.184,2.203c0.896,0.584,2.096,0.332,2.678-0.563C78.936,103.596,78.684,102.397,77.789,101.813z"/>
	<path d="M94.816,61.872c-1.613-0.681-3.299-1.397-4.656-2.527c-1.496-1.243-2.191-2.876-2.502-4.761
		c-0.404-2.458-4.133-1.412-3.73,1.029c0.826,5.02,4.521,7.736,8.936,9.601c0.971,0.411,2.063,0.303,2.646-0.694
		C95.992,63.699,95.789,62.283,94.816,61.872z"/>
	<path d="M91.061,71.968c-1.453-0.447-2.555-1.015-4.094-1.923c-2.816-1.664-5.385-4.076-6.633-7.155
		c-0.396-0.976-1.273-1.656-2.381-1.351c-0.928,0.255-1.748,1.401-1.352,2.38c2.307,5.686,7.6,9.984,13.43,11.78
		C92.424,76.436,93.438,72.701,91.061,71.968z"/>
	<polygon points="16.895,15.685 35.697,15.685 35.697,12.685 13.895,12.685 13.895,34.487 16.895,34.487 	"/>
	<polygon points="92.787,12.685 92.787,15.685 111.59,15.685 111.59,34.487 114.59,34.487 114.59,12.685 	"/>
	<polygon points="16.865,91.513 13.865,91.513 13.865,113.315 35.666,113.315 35.666,110.315 16.865,110.315 	"/>
	<polygon points="111.559,110.315 92.756,110.315 92.756,113.315 114.559,113.315 114.559,91.513 111.559,91.513 	"/>
</g>
</svg>
