<?xml version="1.0" encoding="iso-8859-1"?>
<!-- Generator: Adobe Illustrator 19.1.0, SVG Export Plug-In . SVG Version: 6.00 Build 0)  -->
<svg version="1.1" id="Capa_1" xmlns="http://www.w3.org/2000/svg" xmlns:xlink="http://www.w3.org/1999/xlink" x="0px" y="0px"
	 width="24px" height="24px"  viewBox="0 0 368.554 368.554" style="enable-background:new 0 0 368.554 368.554;" xml:space="preserve">
<g>
	<g>
		<path d="M184.058,138.654c-15.609,0-28.308,12.699-28.308,28.308s12.699,28.308,28.308,28.308s28.308-12.699,28.308-28.308
			S199.667,138.654,184.058,138.654z M184.058,180.27c-7.338,0-13.308-5.97-13.308-13.308s5.97-13.308,13.308-13.308
			s13.308,5.97,13.308,13.308S191.396,180.27,184.058,180.27z"/>
		<path d="M184.058,106.965c-42.63,0-77.312,34.682-77.312,77.312s34.682,77.312,77.312,77.312s77.312-34.682,77.312-77.312
			S226.688,106.965,184.058,106.965z M155.43,239.594v-25.449c0-3.255,2.101-6.029,5.019-7.036l23.608,22.462l23.608-22.462
			c2.917,1.007,5.019,3.781,5.019,7.036v25.449c-8.579,4.458-18.31,6.993-28.627,6.993
			C173.74,246.588,164.008,244.052,155.43,239.594z M227.685,228.711v-14.565c0-12.374-10.067-22.44-22.44-22.44h-3.149
			l-18.038,17.161l-18.038-17.161h-3.148c-12.374,0-22.44,10.066-22.44,22.44v14.565c-11.521-11.314-18.685-27.05-18.685-44.434
			c0-34.358,27.953-62.312,62.312-62.312s62.312,27.953,62.312,62.312C246.37,201.661,239.206,217.397,227.685,228.711z"/>
		<path d="M83.659,119.369c20.481,0,37.145-16.663,37.145-37.145S104.141,45.08,83.659,45.08S46.515,61.743,46.515,82.225
			S63.179,119.369,83.659,119.369z M83.659,60.08c12.21,0,22.145,9.934,22.145,22.145S95.87,104.37,83.659,104.37
			s-22.145-9.934-22.145-22.145S71.449,60.08,83.659,60.08z"/>
		<path d="M75.723,184.276c0-20.481-16.663-37.145-37.145-37.145S1.434,163.795,1.434,184.276s16.663,37.145,37.145,37.145
			S75.723,204.758,75.723,184.276z M38.579,206.421c-12.21,0-22.145-9.934-22.145-22.145s9.934-22.145,22.145-22.145
			s22.145,9.934,22.145,22.145S50.79,206.421,38.579,206.421z"/>
		<path d="M329.974,147.132c-20.481,0-37.145,16.663-37.145,37.145s16.663,37.145,37.145,37.145s37.145-16.663,37.145-37.145
			S350.456,147.132,329.974,147.132z M329.974,206.421c-12.21,0-22.145-9.934-22.145-22.145s9.934-22.145,22.145-22.145
			s22.145,9.934,22.145,22.145S342.185,206.421,329.974,206.421z"/>
		<path d="M184.058,74.289c20.481,0,37.145-16.663,37.145-37.145S204.538,0,184.058,0s-37.145,16.663-37.145,37.145
			S163.576,74.289,184.058,74.289z M184.058,15c12.21,0,22.145,9.934,22.145,22.145s-9.934,22.145-22.145,22.145
			s-22.145-9.934-22.145-22.145S171.846,15,184.058,15z"/>
		<path d="M287.512,119.619c20.481,0,37.145-16.663,37.145-37.145S307.994,45.33,287.512,45.33s-37.145,16.663-37.145,37.145
			S267.031,119.619,287.512,119.619z M287.512,60.33c12.21,0,22.145,9.934,22.145,22.145s-9.934,22.145-22.145,22.145
			s-22.145-9.934-22.145-22.145S275.302,60.33,287.512,60.33z"/>
		<path d="M285.983,249.184c-20.481,0-37.145,16.663-37.145,37.145s16.663,37.145,37.145,37.145s37.145-16.663,37.145-37.145
			S306.464,249.184,285.983,249.184z M285.983,308.473c-12.21,0-22.145-9.934-22.145-22.145s9.934-22.145,22.145-22.145
			s22.145,9.934,22.145,22.145S298.193,308.473,285.983,308.473z"/>
		<path d="M185.586,294.264c-20.481,0-37.145,16.663-37.145,37.145s16.663,37.145,37.145,37.145s37.145-16.663,37.145-37.145
			S206.068,294.264,185.586,294.264z M185.586,353.553c-12.21,0-22.145-9.934-22.145-22.145s9.934-22.145,22.145-22.145
			s22.145,9.934,22.145,22.145S197.797,353.553,185.586,353.553z"/>
		<path d="M82.13,248.934c-20.481,0-37.145,16.663-37.145,37.145s16.663,37.145,37.145,37.145s37.145-16.663,37.145-37.145
			S102.611,248.934,82.13,248.934z M82.13,308.223c-12.21,0-22.145-9.934-22.145-22.145s9.934-22.145,22.145-22.145
			s22.145,9.934,22.145,22.145S94.34,308.223,82.13,308.223z"/>
	</g>
	<g>
	</g>
	<g>
	</g>
	<g>
	</g>
	<g>
	</g>
	<g>
	</g>
	<g>
	</g>
	<g>
	</g>
	<g>
	</g>
	<g>
	</g>
	<g>
	</g>
	<g>
	</g>
	<g>
	</g>
	<g>
	</g>
	<g>
	</g>
	<g>
	</g>
</g>
<g>
</g>
<g>
</g>
<g>
</g>
<g>
</g>
<g>
</g>
<g>
</g>
<g>
</g>
<g>
</g>
<g>
</g>
<g>
</g>
<g>
</g>
<g>
</g>
<g>
</g>
<g>
</g>
<g>
</g>
</svg>
