<?xml version="1.0" encoding="iso-8859-1"?>
<!-- Generator: Adobe Illustrator 17.1.0, SVG Export Plug-In . SVG Version: 6.00 Build 0)  -->
<!DOCTYPE svg PUBLIC "-//W3C//DTD SVG 1.1//EN" "http://www.w3.org/Graphics/SVG/1.1/DTD/svg11.dtd">
<svg version="1.1" id="Layer_1" xmlns="http://www.w3.org/2000/svg" xmlns:xlink="http://www.w3.org/1999/xlink" x="0px" y="0px"
	 viewBox="0 0 64 64" style="enable-background:new 0 0 64 64;" xml:space="preserve">
<g>
	<path d="M24.723,55.984L25,55.969c17.267-6.97,23.706-23.2,16.102-30.17C33.499,18.828,24.786,28,24.786,28h-0.063
		c0,0-8.713-9.172-16.316-2.202C0.803,32.768,7.456,49.014,24.723,55.984z"/>
	<path d="M35.125,17.125c-0.829,0-1.5,0.671-1.5,1.5s0.671,1.5,1.5,1.5c7.375,0,13.375,5.664,13.375,12.625
		c0,0.829,0.671,1.5,1.5,1.5s1.5-0.671,1.5-1.5C51.5,24.134,44.154,17.125,35.125,17.125z"/>
	<path d="M56.875,31.75c0,0.829,0.671,1.5,1.5,1.5s1.5-0.671,1.5-1.5c0-11.855-11.159-21.5-24.875-21.5c-0.829,0-1.5,0.671-1.5,1.5
		s0.671,1.5,1.5,1.5C47.062,13.25,56.875,21.549,56.875,31.75z"/>
</g>
</svg>
