<?xml version="1.0" encoding="iso-8859-1"?>
<!-- Generator: Adobe Illustrator 17.1.0, SVG Export Plug-In . SVG Version: 6.00 Build 0)  -->
<!DOCTYPE svg PUBLIC "-//W3C//DTD SVG 1.1//EN" "http://www.w3.org/Graphics/SVG/1.1/DTD/svg11.dtd">
<svg version="1.1" id="Capa_1" xmlns="http://www.w3.org/2000/svg" xmlns:xlink="http://www.w3.org/1999/xlink" x="0px" y="0px"
	  width="24px" height="24px" viewBox="0 0 207.026 207.026" style="enable-background:new 0 0 207.026 207.026;" xml:space="preserve">
<path d="M199.455,181.98h-25.68c-1.657,0-3-1.343-3-3v-78.17c0-8.312,6.762-15.073,15.073-15.073h1.533
	c8.312,0,15.073,6.762,15.073,15.073v78.17C202.455,180.637,201.112,181.98,199.455,181.98z M176.775,175.98h19.68v-75.17
	c0-5.003-4.07-9.073-9.073-9.073h-1.533c-5.003,0-9.073,4.07-9.073,9.073V175.98z M144.054,181.98h-25.68c-1.657,0-3-1.343-3-3
	V86.985c0-8.312,6.762-15.073,15.073-15.073h1.533c8.312,0,15.073,6.762,15.073,15.073v91.995
	C147.054,180.637,145.71,181.98,144.054,181.98z M121.374,175.98h19.68V86.985c0-5.003-4.07-9.073-9.073-9.073h-1.533
	c-5.003,0-9.073,4.07-9.073,9.073V175.98z M88.652,181.98h-25.68c-1.657,0-3-1.343-3-3v-69.662c0-8.312,6.762-15.073,15.073-15.073
	h1.533c8.312,0,15.073,6.762,15.073,15.073v69.662C91.652,180.637,90.309,181.98,88.652,181.98z M65.973,175.98h19.68v-66.662
	c0-5.003-4.07-9.073-9.073-9.073h-1.533c-5.003,0-9.073,4.07-9.073,9.073V175.98z M33.251,181.98H7.571c-1.657,0-3-1.343-3-3v-78.17
	c0-8.312,6.762-15.073,15.073-15.073h1.533c8.312,0,15.073,6.762,15.073,15.073v78.17C36.251,180.637,34.908,181.98,33.251,181.98z
	 M10.571,175.98h19.68v-75.17c0-5.003-4.07-9.073-9.073-9.073h-1.533c-5.003,0-9.073,4.07-9.073,9.073V175.98z M75.813,89.779
	c-10.428,0-18.911-8.483-18.911-18.911s8.483-18.911,18.911-18.911s18.911,8.483,18.911,18.911S86.24,89.779,75.813,89.779z
	 M75.813,57.957c-7.119,0-12.911,5.792-12.911,12.911s5.792,12.911,12.911,12.911s12.911-5.792,12.911-12.911
	S82.932,57.957,75.813,57.957z M186.615,79.695c-11.255,0-20.411-9.157-20.411-20.412s9.156-20.411,20.411-20.411
	s20.411,9.156,20.411,20.411S197.87,79.695,186.615,79.695z M186.615,44.872c-7.946,0-14.411,6.465-14.411,14.411
	c0,7.947,6.465,14.412,14.411,14.412s14.411-6.465,14.411-14.412C201.026,51.336,194.562,44.872,186.615,44.872z M20.411,79.695
	C9.156,79.695,0,70.538,0,59.283s9.156-20.411,20.411-20.411s20.411,9.156,20.411,20.411S31.666,79.695,20.411,79.695z
	 M20.411,44.872C12.465,44.872,6,51.336,6,59.283c0,7.947,6.465,14.412,14.411,14.412s14.411-6.465,14.411-14.412
	C34.822,51.336,28.357,44.872,20.411,44.872z M131.214,65.869c-11.255,0-20.411-9.156-20.411-20.411s9.156-20.411,20.411-20.411
	s20.411,9.156,20.411,20.411S142.469,65.869,131.214,65.869z M131.214,31.046c-7.946,0-14.411,6.465-14.411,14.411
	s6.465,14.411,14.411,14.411s14.411-6.465,14.411-14.411S139.16,31.046,131.214,31.046z"/>
<g>
</g>
<g>
</g>
<g>
</g>
<g>
</g>
<g>
</g>
<g>
</g>
<g>
</g>
<g>
</g>
<g>
</g>
<g>
</g>
<g>
</g>
<g>
</g>
<g>
</g>
<g>
</g>
<g>
</g>
</svg>
