<?xml version="1.0" encoding="utf-8"?>
<!-- Generator: Adobe Illustrator 17.0.0, SVG Export Plug-In . SVG Version: 6.00 Build 0)  -->
<!DOCTYPE svg PUBLIC "-//W3C//DTD SVG 1.1//EN" "http://www.w3.org/Graphics/SVG/1.1/DTD/svg11.dtd">
<svg version="1.1" id="Capa_1" xmlns="http://www.w3.org/2000/svg" xmlns:xlink="http://www.w3.org/1999/xlink" x="0px" y="0px"
	 width="24px" height="24px" viewBox="0 0 16.63 17.42" enable-background="new 0 0 16.63 17.42" xml:space="preserve">
<path d="M9.412,2.282C9.31,2.204,9.327,2.111,9.452,2.076l1.346-0.37c0.126-0.035,0.264-0.165,0.306-0.286l0.456-1.321
	c0.042-0.122,0.136-0.133,0.207-0.024l0.77,1.164c0.072,0.108,0.237,0.199,0.367,0.203L14.3,1.469c0.13,0,0.169,0.086,0.088,0.188
	l-0.869,1.092c-0.081,0.102-0.117,0.287-0.079,0.411l0.405,1.335c0.037,0.125-0.03,0.188-0.152,0.144l-1.309-0.492
	c-0.12-0.045-0.308-0.022-0.414,0.052l-1.146,0.8c-0.106,0.073-0.189,0.028-0.182-0.103l0.062-1.393
	c0.008-0.13-0.074-0.3-0.178-0.379L9.412,2.282z M10.491,6.605c0.178-0.145,0.144-0.306-0.081-0.358L8.022,5.672
	C7.801,5.616,7.553,5.397,7.47,5.186L6.589,2.893c-0.082-0.214-0.248-0.23-0.365-0.036L4.938,4.953
	C4.819,5.146,4.534,5.317,4.306,5.329L1.854,5.455C1.625,5.469,1.56,5.621,1.708,5.795l1.595,1.868
	C3.45,7.838,3.524,8.16,3.464,8.382L2.83,10.754c-0.062,0.222,0.064,0.33,0.273,0.244l2.272-0.939
	c0.211-0.087,0.542-0.057,0.73,0.066l2.062,1.337c0.19,0.125,0.333,0.041,0.315-0.188l-0.19-2.449
	C8.275,8.6,8.404,8.294,8.585,8.149L10.491,6.605z M1.764,3.486L2.521,3.77c0.07,0.026,0.11-0.011,0.088-0.083L2.375,2.913
	C2.354,2.841,2.373,2.734,2.42,2.675l0.505-0.634c0.047-0.057,0.022-0.107-0.052-0.109l-0.81-0.016
	c-0.076,0-0.171-0.053-0.213-0.116L1.405,1.125C1.363,1.062,1.31,1.068,1.284,1.14L1.019,1.905C0.995,1.976,0.915,2.051,0.843,2.07
	l-0.78,0.215C-0.01,2.306-0.02,2.359,0.041,2.405l0.646,0.489c0.06,0.045,0.107,0.145,0.104,0.22L0.753,3.922
	C0.75,3.999,0.796,4.024,0.858,3.982l0.663-0.464C1.584,3.473,1.691,3.459,1.764,3.486z M16.352,15.668l-1.679-1.679L9.409,8.605
	C9.2,8.804,9.045,9.155,9.062,9.428l0.116,2.013l5.701,5.701c0.333,0.332,0.83,0.373,1.111,0.092l0.454-0.454
	C16.725,16.497,16.684,16,16.352,15.668z"/>
</svg>
