<?xml version="1.0" encoding="iso-8859-1"?>
<!-- Generator: Adobe Illustrator 16.0.0, SVG Export Plug-In . SVG Version: 6.00 Build 0)  -->
<!DOCTYPE svg PUBLIC "-//W3C//DTD SVG 1.1//EN" "http://www.w3.org/Graphics/SVG/1.1/DTD/svg11.dtd">
<svg version="1.1" id="Capa_1" xmlns="http://www.w3.org/2000/svg" xmlns:xlink="http://www.w3.org/1999/xlink" x="0px" y="0px"
	 width="29.529px" height="29.53px" viewBox="0 0 29.529 29.53" style="enable-background:new 0 0 29.529 29.53;"
	 xml:space="preserve">
<g>
	<g>
		<path d="M14.077,13.43c-0.557,0.018-0.848,0.5-0.802,1.109c0.046,0.614,0.376,1.022,0.873,1.007c0.5-0.014,0.791-0.466,0.8-1.077
			C14.954,13.906,14.646,13.414,14.077,13.43z"/>
		<path d="M10.437,13.833c-0.553,0.106-0.764,0.629-0.622,1.223c0.142,0.599,0.536,0.949,1.025,0.854
			c0.491-0.093,0.71-0.584,0.62-1.188C11.381,14.163,10.997,13.726,10.437,13.833z"/>
		<path d="M7.413,15.94C7.329,15.971,7.245,16,7.162,16.033c0.103,0.276,0.206,0.552,0.309,0.83
			c0.072-0.019,0.158-0.048,0.279-0.093c0.322-0.113,0.57-0.32,0.47-0.637C8.125,15.833,7.785,15.807,7.413,15.94z"/>
		<path d="M29.529,16.508l-3.768-2.394l3.197-1.867L25.604,11.4l0.453-3.007l-4.062,1.903l-1.318-3.135l-2.285,2.976l-2.458-5.477
			L14.069,9.89l-3.505-3.083L9.706,8.221l0.106,2.934L8.999,9.387L8.4,10.371L3.182,8.394l1.552,3.916L0,13.343l4.977,2.31
			L1.939,18.19l3.069,0.387l-1.825,3.322l4.598-2.495l2.131,5.465l0.92-2.132l0.049-3.053l0.925,1.922l0.606-1.186l1.703,3.866
			l0.587-3.522l2.866,3.426l1.294-4.163l1.038,0.562l0.363-1.051l1.342,1.971l1.418,0.764l0.611-2.844l3.373,2.024l-2.502-3.457
			L29.529,16.508z M8.852,16.665c-0.178,0.244-0.522,0.454-1.131,0.678c-0.339,0.125-0.601,0.207-0.76,0.248
			c-0.395-0.951-0.786-1.9-1.182-2.852c0.191-0.121,0.605-0.316,1.004-0.459c0.489-0.174,0.805-0.23,1.104-0.182
			c0.283,0.035,0.52,0.19,0.596,0.463c0.078,0.271-0.028,0.569-0.367,0.813c0.001,0.002,0.002,0.006,0.002,0.01
			c0.417-0.029,0.771,0.153,0.88,0.545C9.077,16.203,9.002,16.454,8.852,16.665z M10.907,16.471
			c-0.923,0.182-1.648-0.336-1.895-1.199c-0.257-0.902,0.245-1.786,1.338-1.998c1.141-0.213,1.841,0.456,1.93,1.312
			C12.384,15.615,11.823,16.295,10.907,16.471z M14.128,16.111c-0.941,0.032-1.57-0.595-1.676-1.486
			c-0.109-0.932,0.521-1.724,1.63-1.758c1.152-0.03,1.738,0.739,1.69,1.601C15.714,15.499,15.053,16.081,14.128,16.111z
			 M18.749,16.438c0.063-0.396,0.124-0.793,0.185-1.189c0.057-0.374,0.129-0.825,0.215-1.275c-0.004,0-0.008-0.001-0.014-0.002
			c-0.188,0.372-0.412,0.785-0.605,1.125c-0.209,0.377-0.407,0.76-0.602,1.144c-0.188-0.029-0.375-0.056-0.563-0.08
			c-0.063-0.417-0.131-0.833-0.208-1.25c-0.071-0.378-0.145-0.835-0.189-1.252c-0.007,0-0.009,0-0.012,0
			c-0.061,0.42-0.124,0.9-0.186,1.289c-0.055,0.396-0.11,0.788-0.166,1.183c-0.223-0.02-0.447-0.035-0.67-0.049
			c0.127-1.042,0.264-2.082,0.413-3.122c0.371,0.024,0.742,0.058,1.112,0.1c0.08,0.361,0.155,0.723,0.228,1.084
			c0.062,0.375,0.115,0.778,0.138,1.153c0.005,0,0.009,0,0.015,0.002c0.146-0.347,0.325-0.74,0.494-1.066
			c0.18-0.323,0.366-0.645,0.557-0.964c0.36,0.063,0.721,0.135,1.078,0.216c-0.164,1.036-0.338,2.072-0.519,3.105
			C19.217,16.535,18.982,16.483,18.749,16.438z M20.146,16.819c-0.238-0.064-0.367-0.284-0.309-0.523
			c0.062-0.244,0.285-0.377,0.54-0.307c0.257,0.07,0.382,0.292,0.308,0.538C20.614,16.762,20.395,16.887,20.146,16.819z
			 M21.182,17.131c-0.237-0.076-0.354-0.303-0.283-0.539c0.074-0.242,0.306-0.361,0.56-0.277c0.253,0.084,0.362,0.312,0.276,0.553
			C21.651,17.1,21.428,17.213,21.182,17.131z M22.738,17.258c-0.094,0.225-0.316,0.327-0.561,0.23
			c-0.244-0.094-0.345-0.323-0.262-0.553c0.084-0.23,0.319-0.334,0.568-0.237C22.736,16.797,22.828,17.028,22.738,17.258z
			 M22.84,16.588c-0.18-0.072-0.361-0.144-0.541-0.209c0.209-0.675,0.416-1.348,0.619-2.023c0.277,0.102,0.555,0.21,0.83,0.324
			C23.443,15.313,23.141,15.951,22.84,16.588z"/>
		<path d="M7.726,14.887c-0.073-0.226-0.315-0.281-0.669-0.156c-0.171,0.062-0.265,0.107-0.328,0.141
			c0.085,0.227,0.171,0.456,0.256,0.686c0.082-0.031,0.165-0.062,0.249-0.092C7.63,15.324,7.797,15.11,7.726,14.887z"/>
	</g>
</g>
<g>
</g>
<g>
</g>
<g>
</g>
<g>
</g>
<g>
</g>
<g>
</g>
<g>
</g>
<g>
</g>
<g>
</g>
<g>
</g>
<g>
</g>
<g>
</g>
<g>
</g>
<g>
</g>
<g>
</g>
</svg>
