<?xml version="1.0" encoding="iso-8859-1"?>
<!-- Generator: Adobe Illustrator 18.0.0, SVG Export Plug-In . SVG Version: 6.00 Build 0)  -->
<!DOCTYPE svg PUBLIC "-//W3C//DTD SVG 1.1//EN" "http://www.w3.org/Graphics/SVG/1.1/DTD/svg11.dtd">
<svg version="1.1" id="Capa_1" xmlns="http://www.w3.org/2000/svg" xmlns:xlink="http://www.w3.org/1999/xlink" x="0px" y="0px"
	 width="24px" height="24px"  viewBox="0 0 492.86 492.86" style="enable-background:new 0 0 492.86 492.86;" xml:space="preserve">
<g>
	<path d="M368.096,300.774c-2.816,0-5.572-0.322-8.229-0.933v96.482c2.217,0.839,4.569,1.429,7.082,1.429
		c11.138,0,20.164-9.025,20.164-20.163v-82.47c-2.434,1.502-4.931,2.936-7.733,3.848
		C375.726,300.165,371.928,300.774,368.096,300.774z"/>
	<path d="M486.998,228.904L453.167,124.89c-4.521-13.883-17.362-23.215-31.967-23.215h-52.244c-12.129,0-22.736,6.647-28.678,16.778
		c13.273,5.46,23.924,16.378,28.58,30.681l33.824,103.997c1.533,4.705,2.088,9.563,1.663,14.357
		c-0.165,1.925-0.851,3.673-1.303,5.508v104.593c0,11.138,9.027,20.163,20.164,20.163s20.163-9.025,20.163-20.163V223.605
		l5.734,17.626c2.737,8.415,10.55,13.771,18.943,13.771c2.039,0,4.119-0.322,6.167-0.987c7.854-2.555,13.034-9.516,13.691-17.249
		C488.14,234.179,487.849,231.514,486.998,228.904z"/>
	<path d="M380.956,85.23c4.455,1.522,9.151,2.529,14.122,2.529s9.667-1.007,14.122-2.529c17.265-5.901,29.762-22.082,29.762-41.346
		C438.961,19.649,419.313,0,395.078,0c-24.236,0-43.884,19.649-43.884,43.884C351.194,63.148,363.69,79.329,380.956,85.23z"/>
	<path d="M269.423,333.665c-2.816,0-5.572-0.322-8.229-0.933v93.174c1.871,0.573,3.745,1.171,5.805,1.171
		c11.137,0,20.165-9.024,20.165-20.162v-78.27c-2.087,1.178-4.117,2.451-6.457,3.212
		C277.052,333.056,273.255,333.665,269.423,333.665z"/>
	<path d="M353.218,154.216c-4.521-13.883-17.362-23.215-31.969-23.215h-52.242c-9.52,0-18.022,4.245-24.227,10.848
		c-1.165,1.57-2.418,3.064-3.726,4.513c-0.794,1.218-1.364,2.587-2.002,3.918c14.482,5.036,26.178,16.523,31.134,31.746
		l33.824,103.998c1.533,4.704,2.088,9.563,1.663,14.356c-0.317,3.725-1.22,7.288-2.579,10.629v95.907
		c0,11.138,9.025,20.162,20.164,20.162c11.137,0,20.165-9.024,20.165-20.162V252.931l5.732,17.627
		c2.738,8.415,10.551,13.771,18.942,13.771c2.04,0,4.119-0.322,6.167-0.988c7.855-2.554,13.034-9.516,13.693-17.248
		c0.232-2.587-0.056-5.253-0.909-7.863L353.218,154.216z"/>
	<path d="M281.006,114.556c4.455,1.523,9.15,2.53,14.121,2.53c4.971,0,9.668-1.007,14.123-2.53
		c17.266-5.901,29.762-22.082,29.762-41.346c0-24.236-19.649-43.884-43.885-43.884c-24.234,0-43.883,19.648-43.883,43.884
		C251.244,92.474,263.742,108.655,281.006,114.556z"/>
	<path d="M254.545,187.107c-4.521-13.883-17.362-23.215-31.968-23.215h-52.243c-9.52,0-18.023,4.245-24.228,10.847
		c-1.165,1.57-2.417,3.064-3.726,4.513c-0.794,1.217-1.364,2.586-2.003,3.917c14.482,5.036,26.178,16.524,31.134,31.746
		l33.824,103.997c1.533,4.705,2.088,9.563,1.663,14.357c-0.317,3.725-1.219,7.289-2.579,10.629v95.907
		c0,11.138,9.025,20.163,20.164,20.163c11.137,0,20.164-9.025,20.164-20.163V285.822l5.733,17.626
		c2.738,8.415,10.551,13.771,18.942,13.771c2.041,0,4.119-0.322,6.167-0.987c7.854-2.555,13.034-9.516,13.693-17.249
		c0.232-2.586-0.056-5.252-0.909-7.862L254.545,187.107z"/>
	<path d="M170.749,366.556c-2.816,0-5.572-0.322-8.229-0.933v93.174c1.871,0.573,3.745,1.171,5.805,1.171
		c11.137,0,20.165-9.025,20.165-20.163v-78.269c-2.087,1.177-4.117,2.451-6.457,3.212
		C178.379,365.947,174.582,366.556,170.749,366.556z"/>
	<path d="M182.332,147.447c4.455,1.523,9.15,2.529,14.121,2.529s9.669-1.007,14.123-2.529c17.266-5.901,29.762-22.081,29.762-41.346
		c0-24.235-19.649-43.884-43.885-43.884c-24.234,0-43.883,19.648-43.883,43.884C152.57,125.365,165.068,141.546,182.332,147.447z"/>
	<path d="M155.872,219.999c-4.521-13.883-17.362-23.215-31.969-23.215H71.66c-14.607,0-27.447,9.332-31.968,23.215L5.861,324.012
		c-0.851,2.609-1.14,5.275-0.908,7.862c0.659,7.733,5.838,14.694,13.691,17.249c2.048,0.665,4.128,0.988,6.167,0.988
		c8.392,0,16.205-5.356,18.943-13.772l5.733-17.626v153.984c0,11.138,9.026,20.163,20.164,20.163s20.163-9.025,20.163-20.163
		V352.207h15.932v120.491c0,11.138,9.026,20.163,20.164,20.163s20.164-9.025,20.164-20.163V318.713l5.732,17.626
		c2.738,8.416,10.551,13.772,18.942,13.772c2.041,0,4.119-0.322,6.167-0.988c7.854-2.555,13.034-9.516,13.693-17.249
		c0.232-2.587-0.056-5.253-0.909-7.862L155.872,219.999z"/>
	<path d="M83.66,180.338c4.455,1.523,9.151,2.529,14.122,2.529c4.971,0,9.667-1.007,14.122-2.529
		c17.265-5.901,29.762-22.082,29.762-41.346c0-24.236-19.649-43.884-43.884-43.884c-24.235,0-43.884,19.648-43.884,43.884
		C53.897,158.256,66.394,174.437,83.66,180.338z"/>
</g>
<g>
</g>
<g>
</g>
<g>
</g>
<g>
</g>
<g>
</g>
<g>
</g>
<g>
</g>
<g>
</g>
<g>
</g>
<g>
</g>
<g>
</g>
<g>
</g>
<g>
</g>
<g>
</g>
<g>
</g>
</svg>
