<?xml version="1.0" encoding="iso-8859-1"?>
<!-- Generator: Adobe Illustrator 18.0.0, SVG Export Plug-In . SVG Version: 6.00 Build 0)  -->
<!DOCTYPE svg PUBLIC "-//W3C//DTD SVG 1.1//EN" "http://www.w3.org/Graphics/SVG/1.1/DTD/svg11.dtd">
<svg version="1.1" id="Capa_1" xmlns="http://www.w3.org/2000/svg" xmlns:xlink="http://www.w3.org/1999/xlink" x="0px" y="0px"
	 viewBox="0 90 612 612" style="enable-background:new 0 90 612 612;" xml:space="preserve">
<g>
	<path d="M560.021,219.667c18.002,0,32.644,14.641,32.644,32.644v225.164c0,18.002-14.641,32.644-32.644,32.644H273.936
		c-2.588,0-5.157,0.522-7.533,1.526l-128.894,54.644l-18.833-44.407c-3.033-7.147-10.025-11.783-17.79-11.783H51.959
		c-18.002,0-32.644-14.641-32.644-32.644V252.31c0-18.002,14.641-32.644,32.644-32.644H560.021 M560.021,200.351H51.959
		C23.256,200.351,0,223.626,0,252.31v225.164c0,28.684,23.256,51.959,51.959,51.959h48.927l26.366,62.197l146.684-62.197h286.085
		c28.684,0,51.959-23.275,51.959-51.959V252.31C612,223.626,588.724,200.351,560.021,200.351L560.021,200.351z"/>
	<g>
		<path d="M457.339,322.929H64.573c-9.407,0-17.056-7.649-17.056-17.075c0-9.407,7.649-17.056,17.056-17.056h392.766
			c9.407,0,17.056,7.649,17.056,17.056C474.395,315.26,466.746,322.929,457.339,322.929z M64.573,300.387
			c-3.013,0-5.466,2.453-5.466,5.466c0,3.033,2.453,5.486,5.466,5.486h392.766c3.013,0,5.466-2.453,5.466-5.486
			c0-3.013-2.453-5.466-5.466-5.466H64.573z"/>
		<path d="M457.339,371.218H64.573c-9.407,0-17.056-7.649-17.056-17.075c0-9.407,7.649-17.056,17.056-17.056h392.766
			c9.407,0,17.056,7.649,17.056,17.056S466.746,371.218,457.339,371.218z M64.573,348.676c-3.013,0-5.466,2.453-5.466,5.466
			c0,3.033,2.453,5.486,5.466,5.486h392.766c3.013,0,5.466-2.453,5.466-5.486c0-3.013-2.453-5.466-5.466-5.466
			C457.339,348.676,64.573,348.676,64.573,348.676z"/>
		<path d="M327.344,425.939H60.941c-7.533,0-13.424-7.494-13.424-17.056s5.891-17.056,13.424-17.056h266.403
			c7.533,0,13.424,7.495,13.424,17.056S334.877,425.939,327.344,425.939z M327.209,403.398l-266.268,0.019
			c-0.406,0.212-1.854,2.183-1.854,5.466c0,3.284,1.429,5.254,2.009,5.486l266.152-0.019c0.599-0.309,1.951-2.26,1.951-5.466
			C329.198,405.581,327.769,403.61,327.209,403.398z"/>
	</g>
</g>
</svg>
